<?xml version="1.0" encoding="utf-8"?>
<!-- Generator: Adobe Illustrator 16.2.1, SVG Export Plug-In . SVG Version: 6.00 Build 0)  -->
<!DOCTYPE svg PUBLIC "-//W3C//DTD SVG 1.1//EN" "http://www.w3.org/Graphics/SVG/1.1/DTD/svg11.dtd">
<svg version="1.1" id="Layer_1" xmlns="http://www.w3.org/2000/svg" xmlns:xlink="http://www.w3.org/1999/xlink" x="0px" y="0px"
	 width="676.028px" height="160px" viewBox="0 0 676.028 160" enable-background="new 0 0 676.028 160" xml:space="preserve">
<g>
	<path fill="#3D3E40" d="M98.967,115.637v-14.855h-29.25v14.175c0,10.513-6.172,17.378-18.281,17.378
		c-12.122,0-18.294-7.1-18.294-16.697V44.565c0-9.827,6.172-16.914,18.294-16.914c12.109,0,18.281,6.858,18.281,17.371v14.17h29.25
		V44.336C98.967,18.967,82.739,0,50.967,0C18.745,0,0.005,20.793,0.005,47.075v65.837c0,26.263,18.74,47.088,50.962,47.088
		C82.739,160,98.967,141.027,98.967,115.637z"/>
	<path fill="#3D3E40" d="M141.958,125.938h31.553l6.394,30.168h32.679L177.16,3.884h-36.562l-35.659,152.221h30.625L141.958,125.938
		z M158.42,46.167l10.737,55.542h-22.399L158.42,46.167z"/>
	<polygon fill="#3D3E40" points="254.448,70.168 267.461,95.078 301.066,156.105 326.201,156.105 326.201,3.884 296.724,3.884 
		296.724,91.193 284.38,66.279 251.701,3.884 224.492,3.884 224.492,156.105 254.448,156.105 	"/>
	<path fill="#3D3E40" d="M445.776,100.781h-29.263v14.175c0,10.513-6.172,17.378-18.293,17.378c-12.109,0-18.281-7.1-18.281-16.697
		V44.565c0-9.827,6.172-16.914,18.281-16.914c12.121,0,18.293,6.858,18.293,17.371v14.17h29.263V44.336
		C445.776,18.967,429.536,0,397.773,0c-32.231,0-50.972,20.793-50.972,47.075v65.837c0,26.263,18.74,47.088,50.972,47.088
		c31.763,0,48.003-18.973,48.003-44.363V100.781z"/>
	<path fill="#3D3E40" d="M522.617,155.269l0.838,0.837h3.359c7.846,0,14.297-2.233,19.318-6.719
		c4.912-4.343,7.512-10.928,7.778-19.756V96.016c-0.267-8.963-2.935-15.63-7.979-19.971c-5.034-4.482-11.553-6.726-19.531-6.726
		v-1.042l27.51-26.267v-1.262h-32.969l-27.744,29.421v22.688l0.847,0.85h27.725l0.848,0.837V155.269z"/>
	<path fill="#3D3E40" d="M489.627,156.105h25.412l0.85-0.837v-0.225v-26.685l-0.85-0.815h-20.994l-0.847-0.859v-16.797l-0.837-0.847
		h-29.622l-0.859,0.847v19.743C462.596,146.854,471.836,155.669,489.627,156.105z"/>
	<polygon fill="#3D3E40" points="552.863,34.231 553.911,33.389 553.911,6.497 552.863,5.447 462.739,5.447 461.88,6.497 
		461.88,33.389 462.739,34.231 	"/>
	<path fill="#3D3E40" d="M669.639,131.887v-24.922c0-10.515-6.619-21.943-20.337-25.139c13.718-3.662,19.655-13.037,19.655-25.376
		V39.99c0-21.938-14.855-36.106-39.543-36.106h-54.854v152.221h32.688V93.928h17.601c9.365,0,13.483,6.854,13.483,14.866v24.912
		c0,14.163,5.032,23.315,18.281,23.315h19.42v-9.6C671.926,143.762,669.639,138.95,669.639,131.887z M637.417,57.83
		c0,9.128-4.575,13.477-13.037,13.477h-17.132V29.482h18.506c8.46,0,11.663,4.797,11.663,12.336V57.83z"/>
</g>
</svg>
