<?xml version="1.0" encoding="utf-8"?>
<!-- Generator: Adobe Illustrator 16.2.1, SVG Export Plug-In . SVG Version: 6.00 Build 0)  -->
<!DOCTYPE svg PUBLIC "-//W3C//DTD SVG 1.1//EN" "http://www.w3.org/Graphics/SVG/1.1/DTD/svg11.dtd">
<svg version="1.1" id="Layer_1" xmlns="http://www.w3.org/2000/svg" xmlns:xlink="http://www.w3.org/1999/xlink" x="0px" y="0px"
	 width="160px" height="160px" viewBox="0 0 160 160" enable-background="new 0 0 160 160" xml:space="preserve">
<g>
	<path fill="#3D3E40" d="M80.006,8.177C40.326,8.177,8.17,40.312,8.17,80.026c0,39.662,32.155,71.823,71.836,71.823
		c39.681,0,71.842-32.161,71.842-71.823C151.849,40.312,119.688,8.177,80.006,8.177z M85.534,131.523v0.149l-0.58,0.566H67.318
		c-12.337-0.26-18.75-6.406-19.238-18.346v-13.686l0.579-0.611h20.554l0.586,0.611v11.628l0.573,0.593h14.583l0.58,0.592V131.523z
		 M111.921,53.131L92.819,71.348v0.716c5.54,0,10.064,1.549,13.555,4.668c3.502,3.008,5.338,7.63,5.547,13.841v23.32
		c-0.209,6.119-2.006,10.677-5.404,13.678c-3.489,3.139-7.962,4.668-13.398,4.668h-2.33l-0.586-0.566V89.563l-0.573-0.605H70.371
		l-0.573-0.566V72.656L89.03,52.259h22.891V53.131z M111.921,47.162l-0.736,0.56H48.659l-0.579-0.56V28.509l0.579-0.742h62.526
		l0.736,0.742V47.162z"/>
	<path fill="#3D3E40" d="M80.006,0C35.892,0,0,35.892,0,80.026C0,124.134,35.892,160,80.006,160C124.134,160,160,124.134,160,80.026
		C160,35.892,124.134,0,80.006,0z M80.006,156.731c-42.317,0-76.731-34.407-76.731-76.706c0-42.324,34.414-76.758,76.731-76.758
		c42.292,0,76.719,34.434,76.719,76.758C156.726,122.324,122.298,156.731,80.006,156.731z"/>
</g>
</svg>
